<?xml version="1.0" encoding="UTF-8"?>
<svg xmlns="http://www.w3.org/2000/svg" version="1.1" xmlns:svgjs="http://svgjs.dev/svgjs" viewBox="0 0 1500 939">
  <defs>
    <style>
      .cls-1 {
        fill: #130912;
      }

      .cls-2 {
        fill: #fff;
      }

      .cls-3 {
        fill: #8adcff;
        stroke: #0061e7;
      }

      .cls-3, .cls-4 {
        stroke-miterlimit: 10;
      }

      .cls-5 {
        display: none;
      }

      .cls-5, .cls-4 {
        fill: none;
      }

      .cls-4 {
        stroke: #000;
        stroke-width: 40px;
      }
    </style>
  </defs>
  <!-- Generator: Adobe Illustrator 28.7.2, SVG Export Plug-In . SVG Version: 1.2.0 Build 154)  -->
  <g>
    <g id="Layer_1">
      <g>
        <path class="cls-3" d="M903.9,133.1s-59.3-4-98.9,61.3c-274.4,452.8-458.8,516.1-407.4,516.1h652.6s-142.4-292.7-146.3-577.4h0Z"/>
        <path class="cls-2" d="M996.7,351s-8.5,7-21.6,1.5c-90.7-38.5-125.4-28-117.6-33.6,9-6.4,98.5-71,98.5-71,0,0,10.3,59.7,40.7,103.1h0Z"/>
      </g>
      <g id="textblocktransform">
        <path id="text-0" class="cls-1" d="M387,587.8h-29.2v-227.4h43.2l63,143.9,62-143.9h44.2v227.4h-30.8v-188.1l-60.7,136.8h-30.6l-61.1-136.8v188.1h0ZM654.7,587.8h-29.2v-168.9h29.2v168.9ZM640.1,389.9h0c-5.7,0-10.5-2.1-14.5-6.2-4-4.1-6-8.9-6-14.3h0c0-6.3,1.8-11.2,5.5-14.9,3.7-3.7,8.7-5.5,14.9-5.5h0c5.7,0,10.5,2,14.4,6s6.1,8.8,6.1,14.5h0c0,6.1-1.8,11-5.5,14.7-3.7,3.9-8.7,5.7-14.9,5.7h0ZM843.5,571.5l-20.1,19.5-87.4-90v86.8h-29.2v-240.4h29.2v137.4l76.3-69.2,16.9,18.5-65.3,57.8,79.6,79.6h0ZM931.8,591.7h0c-16.3,0-29-5.4-38.5-16.1-9.4-10.7-14.1-26-14.1-45.9h0v-79.2h-29.2v-25.4h29.9l6.2-53.3h22.4v53.3h46.8v25.4h-46.8v81.5c0,12.6,2.7,21.3,8,26.3s11.6,7.5,19,7.5h0c5.4,0,10.5-.9,15.5-2.6,4.9-1.7,9.3-3.8,13.4-6.2h0l8.1,23.4c-4.4,2.6-10.2,5.1-17.6,7.7-7.4,2.5-15.1,3.7-23,3.7h-.2ZM1066.3,591.7h0c-16,0-30.4-3.8-43.2-11.2-12.8-7.5-22.8-17.8-30-31.2-7.3-13.3-10.9-28.6-10.9-45.9h0c0-18.2,3.7-33.9,11.1-47.1s17.5-23.4,30.2-30.6c12.8-7.1,27.1-10.7,42.9-10.7h0c15.8,0,30.1,3.6,42.7,10.7,12.7,7.1,22.7,17.3,30.2,30.3,7.5,13.1,11.1,28.7,11.1,46.7h0c0,18-3.7,33.6-11.1,46.9-7.4,13.4-17.4,23.7-30,31.1-12.7,7.4-27.1,11.1-43.1,11.1h-.2ZM1066.3,565.7h0c17.1,0,30.4-5.8,40-17.4,9.5-11.6,14.3-26.6,14.3-45h0c0-11.2-2.4-21.6-7.1-31.1-4.8-9.4-11.2-17-19.4-22.8-8.1-5.7-17.4-8.6-27.8-8.6h0c-17.1,0-30.4,5.7-40,16.9-9.5,11.2-14.3,26.2-14.3,44.8h0c0,11.2,2.4,21.7,7.1,31.4,4.8,9.7,11.2,17.4,19.4,23,8.1,5.7,17.4,8.7,27.8,8.7h0Z"/>
      </g>
      <rect class="cls-5" x=".3" y="1.5" width="1497.6" height="936"/>
    </g>
    <g id="Layer_3">
      <circle class="cls-4" cx="750" cy="469.5" r="441.5"/>
    </g>
  </g>
</svg>